<?xml version="1.0" standalone="no"?>
<!DOCTYPE svg PUBLIC "-//W3C//DTD SVG 20010904//EN"
 "http://www.w3.org/TR/2001/REC-SVG-20010904/DTD/svg10.dtd">
<svg version="1.0" xmlns="http://www.w3.org/2000/svg"
 width="500.000000pt" height="500.000000pt" viewBox="0 0 500.000000 500.000000"
 preserveAspectRatio="xMidYMid meet">

<g transform="translate(0.000000,500.000000) scale(0.100000,-0.100000)"
fill="#EEEEEE" stroke="none">
<path d="M500 2500 l0 -1713 302 6 c166 4 348 7 405 7 l103 0 0 33 0 34 -212
6 c-116 4 -275 7 -352 7 l-141 0 0 1614 0 1613 95 7 c52 3 197 6 321 6 125 0
241 3 258 6 27 6 31 10 31 40 l0 34 -178 0 c-98 0 -281 3 -405 7 l-227 6 0
-1713z"/>
<path d="M3950 4200 l-255 -5 -3 -31 c-3 -28 0 -32 29 -38 17 -3 133 -6 258
-6 124 0 269 -3 321 -6 l95 -7 0 -1613 0 -1614 -141 0 c-77 0 -236 -3 -352 -7
l-212 -6 0 -32 0 -32 302 -6 c166 -4 348 -7 405 -7 l103 0 0 1710 0 1710 -147
-2 c-82 -1 -263 -5 -403 -8z"/>
<path d="M1910 3090 c0 -6 32 -10 75 -10 l75 0 0 -575 0 -575 -75 0 c-60 0
-75 -3 -75 -15 0 -13 62 -15 500 -15 l500 0 0 175 c0 141 -3 175 -14 175 -9 0
-15 -21 -20 -71 -11 -122 -47 -179 -140 -220 -47 -22 -68 -24 -273 -27 l-223
-4 0 287 0 287 108 -4 c129 -5 165 -20 193 -81 10 -23 19 -61 19 -84 0 -32 4
-43 15 -43 13 0 15 32 15 225 0 183 -3 225 -14 225 -9 0 -15 -18 -19 -55 -12
-117 -66 -155 -220 -155 l-97 0 0 275 0 275 148 0 c171 0 248 -12 314 -47 61
-33 96 -84 109 -161 18 -102 32 -75 25 46 -4 59 -9 124 -12 145 l-6 37 -454 0
c-296 0 -454 -3 -454 -10z"/>
<path d="M3050 3090 c0 -6 35 -10 85 -10 l85 0 0 -575 0 -575 -85 0 c-69 0
-85 -3 -85 -15 0 -13 36 -15 260 -15 224 0 260 2 260 15 0 12 -17 15 -90 15
l-90 0 0 266 0 266 28 -6 c53 -14 210 -18 259 -8 138 30 232 92 281 186 23 44
26 62 26 141 -1 103 -14 143 -71 206 -44 49 -110 84 -195 104 -76 18 -668 22
-668 5z m583 -31 c49 -16 113 -71 137 -119 26 -50 43 -163 35 -225 -21 -158
-129 -252 -285 -249 -30 1 -72 8 -92 17 l-38 16 0 284 c0 156 3 287 8 291 10
11 189 -1 235 -15z"/>
<path d="M1280 3081 c0 -5 -11 -86 -25 -181 -14 -95 -25 -176 -25 -181 0 -5
-45 -9 -100 -9 l-100 0 0 -40 0 -40 88 0 c49 0 91 -2 94 -5 4 -4 -11 -126 -27
-222 l-6 -32 -97 -3 -97 -3 -3 -37 -3 -38 90 0 c49 0 92 -4 95 -8 3 -5 -6 -82
-19 -173 -33 -223 -34 -209 20 -209 25 0 45 2 45 5 0 21 52 370 56 377 3 4 54
8 115 8 101 0 109 -1 109 -19 0 -11 -11 -96 -25 -191 -14 -95 -25 -174 -25
-176 0 -3 21 -4 47 -2 l48 3 27 185 c14 102 27 188 27 193 1 4 44 7 96 7 l95
0 0 40 0 40 -90 0 c-66 0 -90 3 -89 13 0 6 8 64 17 127 l17 115 98 3 97 3 0
39 0 40 -90 0 c-71 0 -90 3 -90 14 0 8 11 91 25 186 14 95 25 174 25 176 0 3
-21 4 -47 2 l-48 -3 -25 -185 -25 -185 -118 -3 -118 -3 6 23 c7 34 45 315 45
338 0 17 -7 20 -45 20 -25 0 -45 -4 -45 -9z m260 -458 c0 -5 -7 -63 -16 -130
l-17 -123 -117 0 -117 0 18 118 c10 64 19 123 19 130 0 9 30 12 115 12 63 0
115 -3 115 -7z"/>
</g>
</svg>
