<?xml version="1.0" standalone="no"?>
<!DOCTYPE svg PUBLIC "-//W3C//DTD SVG 20010904//EN"
 "http://www.w3.org/TR/2001/REC-SVG-20010904/DTD/svg10.dtd">
<svg version="1.0" xmlns="http://www.w3.org/2000/svg"
 width="47.000000pt" height="48.000000pt" viewBox="0 0 47.000000 48.000000"
 preserveAspectRatio="xMidYMid meet">

<g transform="translate(0.000000,48.000000) scale(0.100000,-0.100000)"
fill="#393E46" stroke="none">
<path d="M105 458 c-11 -6 -22 -13 -25 -15 -3 -3 -5 -44 -5 -91 l0 -86 -32 -9
c-38 -11 -44 -37 -9 -37 40 0 49 -21 41 -103 -7 -70 -6 -75 16 -91 30 -20 69
-21 69 -1 0 8 -8 15 -19 15 -21 0 -45 25 -37 38 3 5 6 38 7 72 2 49 -2 66 -13
74 -14 9 -14 12 2 35 15 21 17 37 11 90 -7 66 2 91 35 91 8 0 14 7 14 15 0 18
-27 19 -55 3z"/>
<path d="M310 455 c0 -8 8 -15 19 -15 35 0 44 -24 36 -99 -6 -63 -5 -71 14
-87 19 -16 19 -18 3 -30 -14 -10 -17 -29 -17 -95 0 -79 -1 -83 -24 -89 -37 -9
-38 -30 -3 -30 35 0 76 42 67 69 -2 9 -5 40 -6 69 -2 57 7 72 49 72 33 0 27
27 -8 35 -41 9 -47 24 -39 97 7 71 -1 95 -37 108 -36 14 -54 12 -54 -5z"/>
</g>
</svg>
