<?xml version="1.0" standalone="no"?>
<!DOCTYPE svg PUBLIC "-//W3C//DTD SVG 20010904//EN"
 "http://www.w3.org/TR/2001/REC-SVG-20010904/DTD/svg10.dtd">
<svg version="1.0" xmlns="http://www.w3.org/2000/svg"
 width="272.000000pt" height="88.000000pt" viewBox="0 0 272.000000 88.000000"
 preserveAspectRatio="xMidYMid meet">

<g transform="translate(0.000000,88.000000) scale(0.100000,-0.100000)"
fill="#393E46" stroke="none">
<path d="M1467 738 c-35 -73 -125 -260 -201 -415 -75 -155 -136 -284 -136
-287 0 -3 12 -12 28 -20 l27 -14 204 419 c112 231 202 421 200 423 -7 6 -48
26 -53 26 -3 0 -34 -60 -69 -132z"/>
<path d="M192 557 l-183 -112 3 -45 3 -44 170 -108 c94 -58 175 -107 180 -107
6 0 18 11 28 24 20 28 44 9 -185 150 -71 43 -128 82 -128 85 0 4 72 50 160
104 88 53 161 100 163 104 3 4 -3 19 -12 34 l-17 26 -182 -111z"/>
<path d="M2328 639 l-17 -29 52 -33 c29 -18 103 -64 165 -102 61 -37 112 -71
112 -74 0 -3 -51 -37 -113 -75 -61 -38 -136 -85 -165 -103 l-53 -33 18 -25
c10 -13 22 -25 27 -25 4 0 86 48 182 108 l173 107 0 45 0 45 -146 90 c-81 50
-163 100 -183 112 l-36 21 -16 -29z"/>
</g>
</svg>
